# xmcd CD database file
#
# Track frame offsets:
#	150
#	20065
#	33682
#	50887
#	67610
#	83785
#	103072
#	123015
#	138677
#	158110
#	170712
#	184805
#
# Disc length: 2737 seconds
#
# Revision: 0
# Processed by: cddbd v1.4PL0 Copyright (c) Steve Scherf et al.
# Submitted via: CDex 1.40Release
#
DISCID=a70aaf0c
DTITLE=McCoslyn and Paye - Close to Home
DYEAR=1994
DGENRE=Country
TTITLE0=In The Country
TTITLE1=Close To Home
TTITLE2=In His Dreams
TTITLE3=In Every Woman There Are Three
TTITLE4=Wouldn't Want To Be The Fool
TTITLE5=I Will Be Good To You
TTITLE6=Honeymoon
TTITLE7=Believing Is Seeing
TTITLE8=Roses From My Heart
TTITLE9=Could Ya, Would Ya
TTITLE10=The Simple Things
TTITLE11=Power Of Love
EXTD=YEAR: 1994 ID3G: 2
EXTT0=
EXTT1=
EXTT2=
EXTT3=
EXTT4=
EXTT5=
EXTT6=
EXTT7=
EXTT8=
EXTT9=
EXTT10=
EXTT11=
PLAYORDER=
